<?xml version="1.0" encoding="UTF-8" standalone="no"?>
<svg width="17px" height="24px" viewBox="0 0 17 24" version="1.1" xmlns="http://www.w3.org/2000/svg" xmlns:xlink="http://www.w3.org/1999/xlink">
    <g id="Page-2" stroke="none" stroke-width="1" fill="none" fill-rule="evenodd">
        <g id="Mob3-Details-A" transform="translate(-292.000000, -402.000000)">
            <g id="foursqare-logo" transform="translate(292.000000, 402.000000)">
                <polygon id="Path-2" fill="#FFFFFF" points="2 2 15.4004578 2 12.9812891 14.9699609 8.70022889 14.9699609 2 21.9623047"></polygon>
                <path d="M2.81088,3.26352 C2.67552,3.61296 2.69376,3.99744 2.6832,4.3656 C2.7168,9.28752 2.66064,14.20992 2.712,19.1304 C4.02576,17.60112 5.30544,16.04448 6.57792,14.48064 C6.88368,14.13216 7.19184,13.66848 7.7088,13.6608 C8.97024,13.57104 10.24032,13.72032 11.50176,13.6152 C11.77968,13.61232 12.0504,13.46352 12.11568,13.17744 C12.37248,12.3168 12.50352,11.42304 12.67488,10.5432 C12.75264,10.17984 12.74352,9.59184 12.2448,9.57648 C10.74768,9.432 9.23184,9.65424 7.73616,9.48672 C6.94416,9.34848 6.9048,8.37408 7.00368,7.74336 C7.03248,7.23696 7.53744,6.94368 8.00352,6.96192 C9.52992,6.91776 11.05776,6.98496 12.5856,6.95424 C12.88944,6.92976 13.2984,6.93744 13.44576,6.60624 C13.69968,6.024 13.7424,5.37792 13.88208,4.764 C13.96272,4.25472 14.136,3.73632 14.03568,3.21744 C13.80624,2.8176 13.28016,2.8728 12.88656,2.84208 C9.88992,2.856 6.89232,2.84832 3.89664,2.84544 C3.51312,2.86656 3.00432,2.856 2.81088,3.26352 Z M1.67568,0.3264 C1.908,0.2808 2.14368,0.2688 2.37936,0.26112 C6.48816,0.26448 10.59696,0.27504 14.70432,0.25632 C15.38544,0.2472 16.19904,0.31632 16.6152,0.93744 C17.14608,1.74768 16.8936,2.76768 16.7232,3.65088 C15.9984,7.15056 15.34464,10.66512 14.62224,14.16432 C14.48736,14.72496 14.35488,15.33456 13.92768,15.75456 C13.61472,16.06896 13.16448,16.19184 12.73296,16.21488 C11.46096,16.28016 10.18704,16.17216 8.916,16.23744 C8.59344,16.21968 8.36544,16.46112 8.17104,16.68144 C6.40944,18.76848 4.5744,20.7936 2.80944,22.87728 C2.568,23.148 2.32752,23.43552 2.00352,23.61168 C1.46592,23.87904 0.72864,23.75472 0.36528,23.25744 C0.13392,22.94448 0.12048,22.5384 0.10368,22.16592 C0.1128,16.1328 0.10656,10.0992 0.10848,4.06608 C0.1176,3.32256 0.04752,2.5704 0.16896,1.83312 C0.30144,1.08528 0.9216,0.4512 1.67568,0.3264 L1.67568,0.3264 Z" id="foursquare-logo" fill="#F94877"></path>
            </g>
        </g>
    </g>
</svg>