<?xml version="1.0" encoding="UTF-8" standalone="no"?>
<svg width="24px" height="23px" viewBox="0 0 24 23" version="1.1" xmlns="http://www.w3.org/2000/svg" xmlns:xlink="http://www.w3.org/1999/xlink">
    <g id="Page-2" stroke="none" stroke-width="1" fill="none" fill-rule="evenodd">
        <g id="Mob3-Details-A" transform="translate(-285.000000, -309.000000)" fill="#B82626">
            <path d="M306.965281,330.952176 L306.964336,330.953082 C304.262634,333.542346 297.400125,331.163465 291.636493,325.639701 C285.872862,320.115937 283.390678,313.539028 286.09238,310.949764 L286.093326,310.948858 L286.094271,310.947951 L287.72111,309.388817 C288.262495,308.869963 289.142596,308.872208 289.677314,309.384673 L293.595672,313.139958 C294.134669,313.656523 294.13173,314.496857 293.591348,315.01475 L291.313151,317.198135 C290.952268,317.543998 291.34241,318.481716 292.186525,319.290701 L298.261196,325.11256 C299.103256,325.919575 300.082868,326.296294 300.444631,325.949586 L302.722829,323.766202 C303.264214,323.247348 304.144315,323.249593 304.679033,323.762058 L308.59739,327.517343 C309.136387,328.033909 309.133449,328.874242 308.593066,329.392135 L306.966227,330.95127 L306.965281,330.952176 L306.965281,330.952176 Z" id="phone"></path>
        </g>
    </g>
</svg>