<?xml version="1.0" encoding="UTF-8" standalone="no"?>
<svg width="24px" height="24px" viewBox="0 0 24 24" version="1.1" xmlns="http://www.w3.org/2000/svg" xmlns:xlink="http://www.w3.org/1999/xlink">
    <g id="Page-2" stroke="none" stroke-width="1" fill="none" fill-rule="evenodd">
        <g id="Mob3-Details-A" transform="translate(-285.000000, -266.000000)" fill="#B82626">
            <path d="M300.139342,277.626922 C300.034768,277.93807 299.802479,278.090644 299.596761,278.090644 C299.311327,278.090644 299.077323,277.93807 298.998464,277.626922 L298.507313,276.150038 L296.953285,277.158056 C296.255558,277.599493 295.814979,278.376078 295.814979,279.282951 L295.814979,284.178182 L292.91607,284.178182 L292.91607,279.282951 C292.91607,277.393775 293.924088,275.710316 295.451544,274.725442 L296.902713,273.792853 L295.686405,272.888552 C295.400114,272.679405 295.348685,272.420543 295.424972,272.161681 C295.502973,271.954249 295.737835,271.824818 296.123556,271.824818 L302.314809,271.824818 L300.139342,277.626922 Z M308.424633,276.606047 L298.394168,266.574725 C297.627011,265.808425 296.372132,265.808425 295.604975,266.574725 L285.575367,276.606047 C284.808211,277.372346 284.808211,278.62894 285.575367,279.395239 L295.604975,289.425704 C296.372132,290.191146 297.627011,290.191146 298.394168,289.425704 L308.424633,279.395239 C309.191789,278.62894 309.191789,277.372346 308.424633,276.606047 L308.424633,276.606047 Z" id="road-sign"></path>
        </g>
    </g>
</svg>