<?xml version="1.0" encoding="UTF-8" standalone="no"?>
<svg width="24px" height="20px" viewBox="0 0 24 20" version="1.1" xmlns="http://www.w3.org/2000/svg" xmlns:xlink="http://www.w3.org/1999/xlink">
    <g id="Page-2" stroke="none" stroke-width="1" fill="none" fill-rule="evenodd">
        <g id="Mob3-Details-A" transform="translate(-285.000000, -512.000000)" fill-rule="nonzero" fill="#1DA1F2">
            <path d="M292.54752,531.50141 C301.60416,531.50141 306.55776,523.99805 306.55776,517.49117 C306.55776,517.27805 306.55776,517.06589 306.54336,516.85469 C307.507038,516.157645 308.338901,515.294574 309,514.30589 C308.101324,514.7041 307.147996,514.965246 306.17184,515.08061 C307.199754,514.465233 307.969079,513.497351 308.33664,512.35709 C307.370071,512.930647 306.31262,513.334862 305.20992,513.55229 C303.683599,511.929309 301.258291,511.532078 299.293967,512.583343 C297.329644,513.634608 296.314824,515.872923 296.81856,518.04317 C292.85942,517.84469 289.170697,515.974681 286.6704,512.89853 C285.363478,515.148429 286.031028,518.026715 288.19488,519.47165 C287.411272,519.448426 286.644748,519.237039 285.96,518.85533 L285.96,518.91773 C285.960641,521.26166 287.612881,523.280484 289.9104,523.74461 C289.185475,523.942313 288.424877,523.971213 287.68704,523.82909 C288.33211,525.834936 290.180712,527.209043 292.28736,527.24861 C290.543746,528.618945 288.389817,529.362845 286.17216,529.36061 C285.780387,529.359858 285.388996,529.336137 285,529.28957 C287.251811,530.734636 289.871917,531.501139 292.54752,531.49757" id="Shape"></path>
        </g>
    </g>
</svg>