<?xml version="1.0" encoding="UTF-8" standalone="no"?>
<svg width="18px" height="18px" viewBox="0 0 18 18" version="1.1" xmlns="http://www.w3.org/2000/svg" xmlns:xlink="http://www.w3.org/1999/xlink">
    <defs></defs>
    <g id="Page-2" stroke="none" stroke-width="1" fill="none" fill-rule="evenodd">
        <g id="Mob2-Results-B" transform="translate(-10.000000, -178.000000)" fill="#FFFFFF">
            <path d="M24.6166429,183.137714 L19.4737857,192.137714 C19.2719286,192.491929 18.9138571,192.7285 18.5082143,192.776714 C18.4580714,192.7825 18.4079286,192.785714 18.3577857,192.785714 C18.0048571,192.785714 17.6654286,192.641071 17.4211429,192.380714 L14.8497143,189.648571 C14.3624286,189.131714 14.3875,188.3185 14.905,187.831214 C15.4218571,187.345214 16.2357143,187.369 16.7217143,187.8865 L18.1025714,189.3535 L22.384,181.862286 C22.7356429,181.245786 23.5218571,181.030429 24.1383571,181.383357 C24.7548571,181.735643 24.9682857,182.521214 24.6166429,183.137714 M19,178 C14.0294286,178 10,182.029429 10,187 C10,191.970571 14.0294286,196 19,196 C23.9699286,196 28,191.970571 28,187 C28,182.029429 23.9699286,178 19,178" id="Fill-134"></path>
        </g>
    </g>
</svg>