<?xml version="1.0" encoding="UTF-8" standalone="no"?>
<svg width="15px" height="14px" viewBox="0 0 15 14" version="1.1" xmlns="http://www.w3.org/2000/svg" xmlns:xlink="http://www.w3.org/1999/xlink">
    <!-- Generator: Sketch 43.2 (39069) - http://www.bohemiancoding.com/sketch -->
    <g id="search-wrap" stroke="none" stroke-width="1" fill="none" fill-rule="evenodd">
        <g id="search-icon" transform="translate(-669.000000, -494.000000)" fill="#FFFFFF">
            <path d="M675.041205,503.332556 C672.950712,503.332556 671.249854,501.631697 671.249854,499.541205 C671.249854,497.451296 672.950712,495.749854 675.041205,495.749854 C677.130531,495.749854 678.832556,497.451296 678.832556,499.541205 C678.832556,501.631697 677.130531,503.332556 675.041205,503.332556 M683.158195,506.008666 L679.808391,502.658278 C679.769894,502.619782 679.726731,502.590034 679.685318,502.557954 C680.251104,501.689443 680.58241,500.655279 680.58241,499.541205 C680.58241,496.48071 678.102283,494 675.041205,494 C671.981293,494 669.5,496.48071 669.5,499.541205 C669.5,502.602283 671.981293,505.08241 675.041205,505.08241 C676.154112,505.08241 677.190026,504.751104 678.05912,504.185318 C678.091201,504.227314 678.120365,504.269311 678.158278,504.307808 L681.506916,507.658195 C681.736147,507.886259 682.034789,508 682.332264,508 C682.630322,508 682.928964,507.886259 683.158195,507.658778 C683.612574,507.20265 683.612574,506.464211 683.158195,506.008666" id="search"></path>
        </g>
    </g>
</svg>