<?xml version="1.0" encoding="UTF-8" standalone="no"?>
<svg width="145px" height="81px" viewBox="0 0 145 81" version="1.1" xmlns="http://www.w3.org/2000/svg" xmlns:xlink="http://www.w3.org/1999/xlink">
    <!-- Generator: Sketch 43.2 (39069) - http://www.bohemiancoding.com/sketch -->
    <title>Group 17</title>
    <desc>Created with Sketch.</desc>
    <defs></defs>
    <g id="Page-2" stroke="none" stroke-width="1" fill="none" fill-rule="evenodd">
        <g id="Mob1-A" transform="translate(-86.000000, -54.000000)" fill="#FFFFFF">
            <g id="Group-17" transform="translate(86.079670, 54.942028)">
                <g id="Group-16-Copy-11">
                    <path d="M17.4456215,33.9580078 C27.0805727,33.9580078 34.891243,26.3562493 34.891243,16.9790039 C34.891243,7.60175852 27.0805727,0 17.4456215,0 C7.81067032,0 0,7.60175852 0,16.9790039 C0,26.3562493 7.81067032,33.9580078 17.4456215,33.9580078 Z" id="full-copy-106" opacity="0.200000018"></path>
                    <path d="M53.9228301,33.9580078 C63.5577813,33.9580078 71.3684517,26.3562493 71.3684517,16.9790039 C71.3684517,7.60175852 63.5577813,0 53.9228301,0 C44.287879,0 36.4772086,7.60175852 36.4772086,16.9790039 C36.4772086,26.3562493 44.287879,33.9580078 53.9228301,33.9580078 Z" id="full-copy-105" opacity="0.200000018"></path>
                    <path d="M90.4000388,33.9580078 C100.03499,33.9580078 107.84566,26.3562493 107.84566,16.9790039 C107.84566,7.60175852 100.03499,0 90.4000388,0 C80.7650876,0 72.9544173,7.60175852 72.9544173,16.9790039 C72.9544173,26.3562493 80.7650876,33.9580078 90.4000388,33.9580078 Z" id="full-copy-104" opacity="0.200000018"></path>
                    <path d="M126.877247,33.9580078 C136.512199,33.9580078 144.322869,26.3562493 144.322869,16.9790039 C144.322869,7.60175852 136.512199,0 126.877247,0 C117.242296,0 109.431626,7.60175852 109.431626,16.9790039 C109.431626,26.3562493 117.242296,33.9580078 126.877247,33.9580078 Z" id="full-copy-103" opacity="0.200000018"></path>
                    <path d="M126.877247,30.8709162 C134.760389,30.8709162 141.150938,24.6512956 141.150938,16.9790039 C141.150938,9.30671222 134.760389,3.08709162 126.877247,3.08709162 C118.994106,3.08709162 112.603557,9.30671222 112.603557,16.9790039 C112.603557,24.6512956 118.994106,30.8709162 126.877247,30.8709162 Z" id="full-copy-102"></path>
                    <g id="Group-14-Copy-17" transform="translate(39.649140, 3.087092)">
                        <path d="M12.3971581,-1.07178155e-13 C5.40085619,0.894194075 0,6.71971408 0,13.7729327 C0,21.4452244 6.39054845,27.664845 14.2736903,27.664845 C16.3702584,27.664845 18.3612515,27.2249154 20.1545307,26.4347309 C13.5722893,23.8787474 8.92105646,17.6179998 8.92105646,10.2999546 C8.92105646,6.44399455 10.2124035,2.88157774 12.3971581,3.86357613e-14 Z" id="Combined-Shape-Copy-12"></path>
                    </g>
                    <g id="Group-15-Copy-17" transform="translate(90.400039, 16.979004) scale(1, -1) translate(-90.400039, -16.979004) translate(76.126348, 3.087092)">
                        <path d="M10.8274598,27.3762143 C4.60921495,25.8758193 0,20.4077389 0,13.8919123 C0,6.21962061 6.39054845,0 14.2736903,0 C15.8059683,0 17.2818542,0.234985091 18.6653789,0.669948249 C20.4091138,3.52385271 21.4105355,6.8575741 21.4105355,10.4189342 C21.4105355,17.7942053 17.1157528,24.1932054 10.8274598,27.3762143 Z" id="Combined-Shape-Copy-10"></path>
                    </g>
                </g>
                <path d="M7.42482246,76.4362208 C7.42482246,76.9149797 7.32106045,77.3488484 7.11353332,77.73784 C6.90600619,78.1268316 6.61777839,78.4559734 6.24884126,78.7252753 C5.87990414,78.9945772 5.44179788,79.2040311 4.93450934,79.3536432 C4.42722079,79.5032554 3.87382341,79.5780603 3.27430059,79.5780603 C3.01297013,79.5780603 2.7324284,79.5630993 2.43266699,79.5331769 C2.13290557,79.5032545 1.8369917,79.4621117 1.54491648,79.4097475 C1.25284125,79.3573832 0.972299525,79.2900588 0.703282873,79.2077721 C0.434266221,79.1254854 0.199840941,79.0394597 0,78.9496924 L0.276701458,77.73784 C0.691755721,77.9173746 1.14523413,78.0669845 1.63715029,78.1866743 C2.12906646,78.306364 2.66709169,78.3662079 3.25124213,78.3662079 C3.98911638,78.3662079 4.61553147,78.216598 5.1305062,77.9173737 C5.64548094,77.6181494 5.90296444,77.1693197 5.90296444,76.5708711 C5.90296444,76.2716468 5.83378977,76.0173099 5.69543835,75.8078529 C5.55708693,75.5983959 5.37646417,75.4113835 5.15356466,75.2468101 C4.93066515,75.0822367 4.67318164,74.9363671 4.38110642,74.8091968 C4.0890312,74.6820264 3.78927428,74.5511178 3.48182668,74.4164668 C3.11288956,74.2668547 2.73242886,74.0985435 2.34043317,73.9115283 C1.94843747,73.7245131 1.591035,73.5075788 1.26821502,73.2607187 C0.945395035,73.0138586 0.680225456,72.7258596 0.472698324,72.3967128 C0.265171193,72.0675661 0.161409184,71.6785803 0.161409184,71.2297439 C0.161409184,70.750985 0.257485118,70.3358175 0.44963987,69.9842289 C0.641794621,69.6326403 0.9069642,69.340901 1.24515656,69.1090022 C1.58334892,68.8771033 1.97533874,68.7050519 2.42113776,68.5928428 C2.86693678,68.4806337 3.34347342,68.42453 3.85076196,68.42453 C4.45028478,68.42453 5.01905432,68.4918545 5.55708762,68.6265054 C6.09512092,68.7611563 6.57165756,68.9332077 6.98671182,69.1426647 L6.68695191,70.3545171 C6.24115288,70.1300989 5.7799884,69.9543073 5.30344462,69.8271369 C4.82690083,69.6999666 4.34267812,69.6363824 3.85076196,69.6363824 C3.205122,69.6363824 2.68246891,69.7485898 2.28278703,69.9730081 C1.88310515,70.1974263 1.6832672,70.5714511 1.6832672,71.0950936 C1.6832672,71.3793567 1.75244188,71.6149923 1.8907933,71.8020075 C2.02914472,71.9890227 2.20592444,72.1573338 2.42113776,72.306946 C2.63635108,72.4565581 2.87846244,72.5874668 3.14747909,72.6996759 C3.41649574,72.811885 3.68935139,72.9353132 3.96605423,73.0699642 C4.27350184,73.2195763 4.62706128,73.380407 5.02674316,73.5524609 C5.42642504,73.7245149 5.8030427,73.9414493 6.15660745,74.2032706 C6.51017219,74.4650918 6.8099291,74.7755324 7.05588718,75.1346016 C7.30184527,75.4936707 7.42482246,75.9275395 7.42482246,76.4362208 Z M28.5002502,74.012516 C28.5002502,74.7456156 28.3888021,75.4487822 28.1659026,76.1220368 C27.9430031,76.7952915 27.6125019,77.3862507 27.174389,77.894932 C26.7362762,78.4036133 26.1944079,78.8113003 25.548768,79.1180053 C24.903128,79.4247102 24.1652648,79.5780603 23.3351563,79.5780603 C22.5050478,79.5780603 21.7671846,79.4247102 21.1215446,79.1180053 C20.4759047,78.8113003 19.9340364,78.4036133 19.4959236,77.894932 C19.0578107,77.3862507 18.7273095,76.7952915 18.50441,76.1220368 C18.2815105,75.4487822 18.1700624,74.7456156 18.1700624,74.012516 C18.1700624,73.2794165 18.2815105,72.5725096 18.50441,71.8917743 C18.7273095,71.211039 19.0578107,70.6163396 19.4959236,70.1076583 C19.9340364,69.598977 20.4759047,69.19129 21.1215446,68.8845851 C21.7671846,68.5778802 22.5050478,68.42453 23.3351563,68.42453 C24.1652648,68.42453 24.903128,68.5778802 25.548768,68.8845851 C26.1944079,69.19129 26.7362762,69.598977 27.174389,70.1076583 C27.6125019,70.6163396 27.9430031,71.211039 28.1659026,71.8917743 C28.3888021,72.5725096 28.5002502,73.2794165 28.5002502,74.012516 Z M26.9553337,74.012516 C26.9553337,73.4140674 26.878473,72.8455497 26.7247492,72.306946 C26.5710254,71.7683422 26.3442862,71.3045515 26.0445248,70.9155599 C25.7447633,70.5265683 25.3681457,70.2161277 24.9146605,69.9842289 C24.4611753,69.7523301 23.9346791,69.6363824 23.3351563,69.6363824 C22.7356335,69.6363824 22.2091374,69.7523301 21.7556522,69.9842289 C21.3021669,70.2161277 20.9255493,70.5265683 20.6257879,70.9155599 C20.3260265,71.3045515 20.0992872,71.7683422 19.9455634,72.306946 C19.7918396,72.8455497 19.7149789,73.4140674 19.7149789,74.012516 C19.7149789,74.6259259 19.7918396,75.1944435 19.9455634,75.718086 C20.0992872,76.2417286 20.3260265,76.7017791 20.6257879,77.0982513 C20.9255493,77.4947235 21.3021669,77.805164 21.7556522,78.0295823 C22.2091374,78.2540005 22.7356335,78.3662079 23.3351563,78.3662079 C23.9346791,78.3662079 24.4611753,78.2540005 24.9146605,78.0295823 C25.3681457,77.805164 25.7447633,77.4947235 26.0445248,77.0982513 C26.3442862,76.7017791 26.5710254,76.2417286 26.7247492,75.718086 C26.878473,75.1944435 26.9553337,74.6259259 26.9553337,74.012516 Z M40.859582,79.3536432 L40.859582,69.8832412 L38.8534964,69.8832412 L38.8534964,68.6489471 L40.859582,68.6489471 L40.859582,67.9981375 C40.859582,64.8562823 42.2123312,63.2853782 44.91787,63.2853782 C45.24069,63.2853782 45.5558191,63.3078197 45.8632667,63.3527033 C46.1707143,63.397587 46.447413,63.4649114 46.6933711,63.5546787 L46.5319619,64.7665311 C46.3321209,64.691725 46.1015387,64.6356213 45.8402082,64.5982183 C45.5788778,64.5608152 45.3175512,64.542114 45.0562208,64.542114 C44.1031332,64.542114 43.4229156,64.8151521 43.0155475,65.3612365 C42.6081795,65.9073208 42.4044985,66.7713181 42.4044985,67.9532541 L42.4044985,68.6489471 L45.7479744,68.6489471 L45.7479744,69.8832412 L42.4044985,69.8832412 L42.4044985,79.3536432 L40.859582,79.3536432 Z M55.2711163,68.6489471 L57.2772018,68.6489471 L57.2772018,65.7988498 L58.8221183,65.7988498 L58.8221183,68.6489471 L62.557588,68.6489471 L62.557588,69.8832412 L58.8221183,69.8832412 L58.8221183,75.8302946 C58.8221183,76.2342474 58.8451765,76.5933112 58.8912937,76.9074967 C58.9374108,77.2216823 59.0296437,77.4872398 59.1679951,77.7041775 C59.3063466,77.9211151 59.4946554,78.0819457 59.7329273,78.1866743 C59.9711992,78.2914028 60.2824852,78.3437662 60.6667947,78.3437662 C60.9896147,78.3437662 61.3085868,78.3138442 61.6237206,78.2539994 C61.9388544,78.1941545 62.2270822,78.1193496 62.4884126,78.0295823 L62.6267634,79.1741095 C62.3961777,79.278838 62.0656765,79.3723442 61.6352498,79.4546309 C61.2048232,79.5369176 60.7897751,79.5780603 60.3900933,79.5780603 C59.8059428,79.5780603 59.3178771,79.4845541 58.9258814,79.2975389 C58.5338857,79.1105237 58.2149136,78.8487064 57.9689555,78.5120791 C57.7229974,78.1754517 57.5462177,77.7752452 57.438611,77.3114475 C57.3310044,76.8476498 57.2772018,76.3464566 57.2772018,75.8078529 L57.2772018,69.8832412 L55.2711163,69.8832412 L55.2711163,68.6489471 Z M84.4861786,77.4685395 L86.9995502,68.6489471 L88.5444666,68.6489471 L85.2240491,79.3536432 L83.7713665,79.3536432 L80.6123582,70.0178915 L77.4533498,79.3536432 L76.0006672,79.3536432 L72.6802497,68.6489471 L74.2251662,68.6489471 L76.7385377,77.4685395 L79.7361369,68.6489471 L81.4885794,68.6489471 L84.4861786,77.4685395 Z M105.815249,77.894932 C105.646153,78.0744666 105.434786,78.2652192 105.181142,78.4671956 C104.927498,78.669172 104.63927,78.8524442 104.31645,79.0170176 C103.99363,79.1815909 103.636227,79.3162398 103.244232,79.4209684 C102.852236,79.5256969 102.441031,79.5780603 102.010604,79.5780603 C101.0114,79.5780603 100.250478,79.3087625 99.7278172,78.7701587 C99.2051563,78.231555 98.9438298,77.5358689 98.9438298,76.6830796 C98.9438298,76.1743983 99.0399057,75.7330491 99.2320605,75.3590187 C99.4242152,74.9849883 99.6893848,74.6745477 100.027577,74.4276877 C100.36577,74.1808276 100.769288,73.990075 101.238146,73.855424 C101.707004,73.7207731 102.218128,73.6384877 102.771533,73.6085652 C103.263449,73.5786428 103.763044,73.5562013 104.270333,73.5412401 L105.792191,73.4963567 L105.792191,72.8006636 C105.792191,71.7234561 105.565452,70.9342638 105.111966,70.4330631 C104.658481,69.9318624 103.955205,69.6812658 103.002118,69.6812658 C102.448712,69.6812658 101.937588,69.7411098 101.468731,69.8607995 C100.999873,69.9804892 100.542552,70.1749821 100.096753,70.444284 L99.7047588,69.2997567 C100.135185,69.0454161 100.642466,68.8359622 101.226617,68.6713888 C101.810767,68.5068154 102.47177,68.42453 103.209644,68.42453 C103.809167,68.42453 104.362564,68.5105557 104.869853,68.6826097 C105.377141,68.8546637 105.811404,69.1202212 106.172655,69.4792904 C106.533906,69.8383596 106.818291,70.2871893 107.025818,70.8257931 C107.233345,71.3643968 107.337107,72.0002389 107.337107,72.7333385 L107.337107,79.3536432 L105.815249,79.3536432 L105.815249,77.894932 Z M102.356481,78.4110914 C103.017493,78.4110914 103.647752,78.2465205 104.247274,77.9173737 C104.846797,77.588227 105.361764,77.1842802 105.792191,76.7055213 L105.792191,74.5735588 C105.284902,74.58852 104.78915,74.6109615 104.304921,74.6408839 C103.820691,74.6708064 103.371055,74.7007283 102.956001,74.7306508 C102.233499,74.8054568 101.637828,74.988729 101.168971,75.2804727 C100.700113,75.5722164 100.465688,76.0397474 100.465688,76.6830796 C100.465688,77.8350932 101.095946,78.4110914 102.356481,78.4110914 Z M125.368819,69.8832412 L124.930708,69.8832412 C124.069855,69.8832412 123.308934,70.0552926 122.647921,70.3994006 C121.986909,70.7435085 121.45657,71.2746237 121.056888,71.992762 L121.056888,79.3536432 L119.511971,79.3536432 L119.511971,68.6489471 L120.964654,68.6489471 L120.964654,70.7809096 C121.256729,70.107655 121.717894,69.565319 122.348161,69.1538856 C122.978429,68.7424522 123.731664,68.5367386 124.60789,68.5367386 C124.915338,68.5367386 125.168978,68.574141 125.368819,68.6489471 L125.368819,69.8832412 Z M140.218464,68.42453 C140.940966,68.42453 141.559695,68.5404777 142.07467,68.7723765 C142.589644,69.0042754 143.016221,69.3221964 143.354414,69.7261492 C143.692606,70.130102 143.938561,70.6013733 144.092284,71.139977 C144.246008,71.6785808 144.322869,72.2545789 144.322869,72.8679888 C144.322869,73.3467477 144.276752,73.8404604 144.184518,74.3491417 L136.944163,74.3491417 C136.959536,75.6657286 137.282351,76.668115 137.912618,77.3563309 C138.542886,78.0445469 139.488273,78.3886496 140.748808,78.3886496 C141.332959,78.3886496 141.901728,78.3250654 142.455134,78.1978951 C143.00854,78.0707248 143.508135,77.9024136 143.953934,77.6929566 L144.207577,78.8150422 C143.731033,79.0394604 143.173792,79.2227325 142.535839,79.3648641 C141.897885,79.5069956 141.248412,79.5780603 140.587399,79.5780603 C139.711174,79.5780603 138.946409,79.4359309 138.293083,79.1516678 C137.639757,78.8674047 137.097889,78.4746787 136.667462,77.973478 C136.237035,77.4722773 135.91422,76.8813181 135.699007,76.2005828 C135.483793,75.5198475 135.376188,74.7904992 135.376188,74.012516 C135.376188,73.2046104 135.487637,72.4603011 135.710536,71.7795658 C135.933436,71.0988305 136.252408,70.5078713 136.667462,70.0066706 C137.082516,69.5054699 137.589797,69.1164841 138.18932,68.8397016 C138.788843,68.5629192 139.465217,68.42453 140.218464,68.42453 Z M140.149289,69.5690573 C139.642,69.5690573 139.192365,69.6737842 138.800369,69.8832412 C138.408373,70.0926982 138.077872,70.3657363 137.808855,70.7023637 C137.539839,71.038991 137.332315,71.4204963 137.186277,71.8468909 C137.04024,72.2732856 136.959536,72.7108945 136.944163,73.159731 L142.847128,73.159731 C142.939362,72.1274071 142.762582,71.2708904 142.316783,70.5901551 C141.870984,69.9094198 141.148493,69.5690573 140.149289,69.5690573 Z" id="software-copy-26" opacity="0.5"></path>
                <path d="M16.8828148,47.2226651 C16.3368504,47.2226651 15.8538891,47.3452851 15.4339165,47.5905289 C15.0139439,47.8357727 14.6569725,48.1218861 14.3629917,48.4488778 C14.4469862,48.7963065 14.5047316,49.1948216 14.5362295,49.6444352 C14.5677275,50.0940488 14.5834762,50.523219 14.5834762,50.9319586 L14.5834762,58.6877541 L9.54383001,58.6877541 L9.54383001,50.8399926 C9.54383001,49.5933368 9.38109306,48.6787956 9.05561429,48.0963417 C8.73013551,47.5138877 8.1579314,47.2226651 7.33898479,47.2226651 C6.81401902,47.2226651 6.35730565,47.3350668 5.96883098,47.5598736 C5.58035631,47.7846804 5.27063115,48.0605755 5.03964621,48.3875672 L5.03964621,58.6877541 L0,58.6877541 L0,43.6666482 L4.85065948,43.6666482 L4.85065948,45.6285885 C5.33362799,44.8111093 5.96882704,44.2286641 6.7562757,43.8812354 C7.54372436,43.5338067 8.34690994,43.360095 9.16585655,43.360095 C10.1737908,43.360095 11.0084739,43.5593526 11.6699308,43.9578737 C12.3313876,44.3563948 12.9560875,45.0052592 13.5440492,45.9044864 C14.635978,44.208217 16.3473407,43.360095 18.6781888,43.360095 C19.6861231,43.360095 20.5365548,43.5695709 21.2295097,43.988529 C21.9224645,44.4074871 22.4841694,44.9643865 22.9146414,45.6592439 C23.3451133,46.3541012 23.6548385,47.1562407 23.8438261,48.0656863 C24.0328138,48.975132 24.1273062,49.9305465 24.1273062,50.9319586 L24.1273062,58.6877541 L19.08766,58.6877541 L19.08766,50.8399926 C19.08766,49.5933368 18.9249231,48.6787956 18.5994443,48.0963417 C18.2739655,47.5138877 17.7017614,47.2226651 16.8828148,47.2226651 Z M42.2700327,51.1772011 C42.2700327,52.2807981 42.091547,53.307741 41.7345703,54.2580606 C41.3775935,55.2083802 40.8526356,56.0360656 40.1596808,56.7411414 C39.466726,57.4462172 38.605795,57.9980075 37.5768621,58.3965286 C36.5479292,58.7950497 35.3720235,58.9943073 34.0491098,58.9943073 C32.726196,58.9943073 31.5502903,58.7950497 30.5213574,58.3965286 C29.4924245,57.9980075 28.6314936,57.4462172 27.9385388,56.7411414 C27.2455839,56.0360656 26.720626,55.2083802 26.3636493,54.2580606 C26.0066726,53.307741 25.8281869,52.2807981 25.8281869,51.1772011 C25.8281869,50.0736042 26.0066726,49.0466613 26.3636493,48.0963417 C26.720626,47.146022 27.2455839,46.3183367 27.9385388,45.6132609 C28.6314936,44.908185 29.4924245,44.3563948 30.5213574,43.9578737 C31.5502903,43.5593526 32.726196,43.360095 34.0491098,43.360095 C35.3720235,43.360095 36.5479292,43.5593526 37.5768621,43.9578737 C38.605795,44.3563948 39.466726,44.908185 40.1596808,45.6132609 C40.8526356,46.3183367 41.3775935,47.146022 41.7345703,48.0963417 C42.091547,49.0466613 42.2700327,50.0736042 42.2700327,51.1772011 Z M37.2303865,51.1772011 C37.2303865,50.6458396 37.1778907,50.1298136 37.0728975,49.6291076 C36.9679044,49.1284015 36.7946682,48.6787947 36.553184,48.2802736 C36.3116997,47.8817524 35.9862258,47.564984 35.5767525,47.3299587 C35.1672792,47.0949334 34.6580701,46.9774225 34.0491098,46.9774225 C33.4401495,46.9774225 32.9309403,47.0949334 32.521467,47.3299587 C32.1119937,47.564984 31.7865198,47.8817524 31.5450356,48.2802736 C31.3035513,48.6787947 31.1303152,49.1284015 31.0253221,49.6291076 C30.9203289,50.1298136 30.8678331,50.6458396 30.8678331,51.1772011 C30.8678331,51.7085626 30.9203289,52.2245887 31.0253221,52.7252947 C31.1303152,53.2260007 31.3035513,53.6756076 31.5450356,54.0741287 C31.7865198,54.4726498 32.1119937,54.7894183 32.521467,55.0244436 C32.9309403,55.2594689 33.4401495,55.3769797 34.0491098,55.3769797 C34.6580701,55.3769797 35.1672792,55.2594689 35.5767525,55.0244436 C35.9862258,54.7894183 36.3116997,54.4726498 36.553184,54.0741287 C36.7946682,53.6756076 36.9679044,53.2260007 37.0728975,52.7252947 C37.1778907,52.2245887 37.2303865,51.7085626 37.2303865,51.1772011 Z M59.5623188,51.1772011 C59.5623188,52.2807981 59.3838331,53.307741 59.0268564,54.2580606 C58.6698797,55.2083802 58.1449218,56.0360656 57.4519669,56.7411414 C56.7590121,57.4462172 55.8980812,57.9980075 54.8691483,58.3965286 C53.8402153,58.7950497 52.6643097,58.9943073 51.3413959,58.9943073 C50.0184822,58.9943073 48.8425765,58.7950497 47.8136436,58.3965286 C46.7847107,57.9980075 45.9237797,57.4462172 45.2308249,56.7411414 C44.5378701,56.0360656 44.0129122,55.2083802 43.6559354,54.2580606 C43.2989587,53.307741 43.120473,52.2807981 43.120473,51.1772011 C43.120473,50.0736042 43.2989587,49.0466613 43.6559354,48.0963417 C44.0129122,47.146022 44.5378701,46.3183367 45.2308249,45.6132609 C45.9237797,44.908185 46.7847107,44.3563948 47.8136436,43.9578737 C48.8425765,43.5593526 50.0184822,43.360095 51.3413959,43.360095 C52.6643097,43.360095 53.8402153,43.5593526 54.8691483,43.9578737 C55.8980812,44.3563948 56.7590121,44.908185 57.4519669,45.6132609 C58.1449218,46.3183367 58.6698797,47.146022 59.0268564,48.0963417 C59.3838331,49.0466613 59.5623188,50.0736042 59.5623188,51.1772011 Z M54.5226726,51.1772011 C54.5226726,50.6458396 54.4701768,50.1298136 54.3651836,49.6291076 C54.2601905,49.1284015 54.0869544,48.6787947 53.8454701,48.2802736 C53.6039859,47.8817524 53.278512,47.564984 52.8690387,47.3299587 C52.4595654,47.0949334 51.9503562,46.9774225 51.3413959,46.9774225 C50.7324356,46.9774225 50.2232265,47.0949334 49.8137532,47.3299587 C49.4042799,47.564984 49.078806,47.8817524 48.8373217,48.2802736 C48.5958374,48.6787947 48.4226013,49.1284015 48.3176082,49.6291076 C48.212615,50.1298136 48.1601192,50.6458396 48.1601192,51.1772011 C48.1601192,51.7085626 48.212615,52.2245887 48.3176082,52.7252947 C48.4226013,53.2260007 48.5958374,53.6756076 48.8373217,54.0741287 C49.078806,54.4726498 49.4042799,54.7894183 49.8137532,55.0244436 C50.2232265,55.2594689 50.7324356,55.3769797 51.3413959,55.3769797 C51.9503562,55.3769797 52.4595654,55.2594689 52.8690387,55.0244436 C53.278512,54.7894183 53.6039859,54.4726498 53.8454701,54.0741287 C54.0869544,53.6756076 54.2601905,53.2260007 54.3651836,52.7252947 C54.4701768,52.2245887 54.5226726,51.7085626 54.5226726,51.1772011 Z M61.483684,58.6877541 L61.483684,43.6666482 L66.3343435,43.6666482 L66.3343435,45.6285885 C66.817312,44.8111093 67.4420119,44.2286641 68.2084619,43.8812354 C68.9749119,43.5338067 69.7885967,43.360095 70.6495405,43.360095 C71.6784734,43.360095 72.5499035,43.5695709 73.263857,43.988529 C73.9778104,44.4074871 74.5605137,44.9643865 75.0119843,45.6592439 C75.4634548,46.3541012 75.7889287,47.1562407 75.9884157,48.0656863 C76.1879027,48.975132 76.2876447,49.9305465 76.2876447,50.9319586 L76.2876447,58.6877541 L71.2479985,58.6877541 L71.2479985,50.8399926 C71.2479985,49.5933368 71.0485145,48.6787956 70.6495405,48.0963417 C70.2505665,47.5138877 69.6416154,47.2226651 68.8226688,47.2226651 C68.297703,47.2226651 67.8409896,47.3350668 67.452515,47.5598736 C67.0640403,47.7846804 66.7543151,48.0605755 66.5233302,48.3875672 L66.5233302,58.6877541 L61.483684,58.6877541 Z M90.0521785,53.7829032 C90.0521785,54.6208194 89.8894416,55.366758 89.5639628,56.0207414 C89.238484,56.6747248 88.7765211,57.2214059 88.1780601,57.6608009 C87.5795991,58.100196 86.8709059,58.432292 86.0519593,58.6570988 C85.2330127,58.8819056 84.3300851,58.9943073 83.3431495,58.9943073 C82.5032043,58.9943073 81.621275,58.9176698 80.6973352,58.7643924 C79.7733955,58.611115 78.9334628,58.3812025 78.1775121,58.0746477 L78.8704635,54.6719074 C79.521421,54.9375882 80.2406134,55.1368457 81.028062,55.2696861 C81.8155107,55.4025265 82.5032055,55.4689457 83.0911672,55.4689457 C83.7001275,55.4689457 84.2303349,55.3820898 84.6818055,55.2083755 C85.1332761,55.0346611 85.359008,54.7434385 85.359008,54.3346989 C85.359008,53.9668333 85.159524,53.7062657 84.76055,53.5529883 C84.361576,53.3997109 83.763124,53.1800167 82.965176,52.893899 C82.3142185,52.6690922 81.7052673,52.4187429 81.1383043,52.1428437 C80.5713412,51.8669444 80.0831304,51.5399576 79.6736571,51.1618735 C79.2641838,50.7837893 78.9439595,50.34951 78.7129745,49.8590225 C78.4819896,49.3685349 78.3664989,48.796308 78.3664989,48.1423246 C78.3664989,46.5073662 78.9334534,45.3016024 80.0673794,44.5249971 C81.2013055,43.7483918 82.6816868,43.360095 84.5085677,43.360095 C85.4745047,43.360095 86.356434,43.4469509 87.1543819,43.6206652 C87.9523299,43.7943795 88.7187684,44.0856021 89.4537205,44.4943418 L88.7607692,47.7131502 C88.1938061,47.4679064 87.5953541,47.2686488 86.9653952,47.1153715 C86.3354363,46.9620941 85.6739893,46.8854566 84.9810345,46.8854566 C84.3720742,46.8854566 83.9048617,46.9416574 83.5793829,47.0540608 C83.2539041,47.1664642 83.0911672,47.3963768 83.0911672,47.7438055 C83.0911672,48.0912342 83.2854016,48.3415834 83.6738763,48.4948608 C84.0623509,48.6481381 84.5610609,48.8371774 85.1700212,49.0619842 C85.6319911,49.22548 86.1464499,49.4247376 86.7134129,49.6597629 C87.2803759,49.8947882 87.8105834,50.1962291 88.3040512,50.5640948 C88.7975191,50.9319604 89.2122358,51.3764581 89.5482139,51.8976011 C89.884192,52.4187441 90.0521785,53.0471719 90.0521785,53.7829032 Z M100.351956,57.2162988 C99.868987,57.6863494 99.2127896,58.1001921 98.3833437,58.4578392 C97.5538978,58.8154864 96.6457206,58.9943073 95.658785,58.9943073 C94.9658302,58.9943073 94.3463798,58.8819056 93.8004154,58.6570988 C93.254451,58.432292 92.7977377,58.1257419 92.4302616,57.7374392 C92.0627856,57.3491366 91.7793083,56.8944206 91.5798213,56.3732776 C91.3803343,55.8521346 91.2805923,55.2952352 91.2805923,54.7025627 C91.2805923,53.312848 91.7268065,52.2654685 92.6192484,51.5603926 C93.5116902,50.8553168 94.7768387,50.4414741 96.4147319,50.3188522 C97.0236922,50.2779783 97.6693904,50.2473233 98.3518459,50.2268863 C99.0343014,50.2064493 99.638003,50.1860126 100.162969,50.1655756 L100.162969,49.6750905 C100.162969,48.0401321 99.2285437,47.2226651 97.3596656,47.2226651 C96.6247135,47.2226651 95.9160203,47.3044118 95.2335648,47.4679076 C94.5511093,47.6314035 93.9264094,47.8562069 93.3594464,48.1423246 L92.4460105,44.7395843 C93.1809626,44.3308447 94.0471431,43.9987487 95.0445781,43.7432865 C96.0420131,43.4878242 97.1286759,43.360095 98.3045992,43.360095 C100.467458,43.360095 102.157823,43.906776 103.375743,45.0001545 C104.593664,46.093533 105.202615,47.7335761 105.202615,49.9203331 L105.202615,58.6877541 L100.351956,58.6877541 L100.351956,57.2162988 Z M97.6116479,55.7754989 C98.0946164,55.7754989 98.5513298,55.7141888 98.9818017,55.591567 C99.4122736,55.4689451 99.8059921,55.3054517 100.162969,55.1010819 L100.162969,52.8632436 C99.6590016,52.9041176 99.2075379,52.9501001 98.8085639,53.0011926 C98.4095899,53.052285 98.021121,53.0982675 97.6431457,53.1391415 C96.6142128,53.2617634 96.099754,53.7318069 96.099754,54.5492861 C96.099754,54.9171518 96.2309935,55.2134836 96.4934764,55.4382904 C96.7559593,55.6630972 97.1286794,55.7754989 97.6116479,55.7754989 Z M122.431906,43.6666482 L122.431906,58.6877541 L117.581246,58.6877541 L117.581246,56.7258137 C116.993284,57.5841669 116.331837,58.1768305 115.596885,58.5038222 C114.861933,58.8308139 114.084996,58.9943073 113.266049,58.9943073 C112.237116,58.9943073 111.370936,58.7848314 110.667481,58.3658733 C109.964027,57.9469152 109.397073,57.3900158 108.966601,56.6951584 C108.536129,56.0003011 108.226404,55.1981616 108.037416,54.2887159 C107.848428,53.3792703 107.753936,52.4238558 107.753936,51.4224437 L107.753936,43.6666482 L112.793582,43.6666482 L112.793582,51.5144096 C112.793582,52.7610655 112.972068,53.6756067 113.329045,54.2580606 C113.686021,54.8405146 114.273974,55.1317372 115.092921,55.1317372 C115.617887,55.1317372 116.0746,55.0193355 116.463075,54.7945287 C116.851549,54.5697219 117.161274,54.2938268 117.392259,53.9668351 L117.392259,43.6666482 L122.431906,43.6666482 Z M130.243357,54.0894564 C130.243357,54.477759 130.327351,54.7792 130.49534,54.9937883 C130.663329,55.2083766 130.988802,55.3156691 131.471771,55.3156691 C131.765752,55.3156691 132.122723,55.2850141 132.542696,55.2237031 L132.700185,58.5957882 C132.280212,58.71841 131.8025,58.8154842 131.267035,58.8870137 C130.73157,58.9585431 130.180364,58.9943073 129.613401,58.9943073 C128.773456,58.9943073 128.070013,58.8716872 127.50305,58.6264435 C126.936087,58.3811997 126.484623,58.0542129 126.148645,57.6454733 C125.812667,57.2367337 125.571186,56.7717993 125.424196,56.2506563 C125.277205,55.7295133 125.203711,55.1930506 125.203711,54.6412521 L125.203711,37.0450994 L130.243357,37.0450994 L130.243357,54.0894564 Z M132.4797,43.6666482 L134.842034,43.6666482 L134.842034,39.7427674 L139.881681,39.7427674 L139.881681,43.6666482 L144.322869,43.6666482 L144.322869,47.406597 L139.881681,47.406597 L139.881681,53.2924181 C139.881681,53.8850905 140.01292,54.3500249 140.275403,54.6872351 C140.537886,55.0244453 141.015598,55.1930478 141.708552,55.1930478 C142.086528,55.1930478 142.469747,55.167502 142.858222,55.1164095 C143.246696,55.0653171 143.619417,54.9886795 143.976393,54.8864946 L144.322869,58.289235 C143.818902,58.5140418 143.199451,58.6877535 142.464499,58.8103754 C141.729547,58.9329973 140.994606,58.9943073 140.259654,58.9943073 C139.272719,58.9943073 138.438035,58.8461414 137.75558,58.5498052 C137.073124,58.2534689 136.516669,57.8549538 136.086197,57.3542478 C135.655725,56.8535417 135.34075,56.2608782 135.141263,55.5762393 C134.941776,54.8916004 134.842034,54.1609893 134.842034,53.3843841 L134.842034,47.406597 L132.4797,47.406597 L132.4797,43.6666482 Z" id="moonsault-copy-27"></path>
            </g>
        </g>
    </g>
</svg>